<svg xmlns="http://www.w3.org/2000/svg" xmlns:xlink="http://www.w3.org/1999/xlink" version="1.1" id="Layer_1" x="0px" y="0px" style="enable-background:new 0 0 1000 1000;" xml:space="preserve" viewBox="63.88 378 872.3 244.17">
<style type="text/css">
	.st0{fill:#FFFFFF;}
	.st1{fill-rule:evenodd;clip-rule:evenodd;}
</style>
<g>
	<path class="st1" d="M272.2,465.6c-0.6-1.7-1.5-4.1-4-4.3c-1.4-0.1-3.5-0.3-4.5,0.5c-3.9,2.9-14,21.1-16.8,25.8   c-4.6,7.5-8.2,15.1-12.1,23c-0.9,1.1-1.7,1.3-2.9,1.8c-2.1,0-5.7,0.5-6-1.8c-0.5-5.6,4.3-9.8,5.3-27.7   c-0.2-34.6-3.7-66.2-30.6-93.1c-5.2-5.2-12.1-10.9-19.4-11.8c-0.7,0.3-1.4,0.5-2.1,0.8c0.4,0.6,0.8,1.1,1.2,1.7   c4.1,4.4,8.1,8.9,11.6,13.7c18.2,25,21.7,53,18.2,83.1c-1,22.5-16.7,47.5-19.5,50.7c-10.7,13.6-23.5,19.4-36.8,19.4   c-5.5,0-15.8-7.2-14.9-12.8c0.5-3,15.8-15.7,18.3-19.9c14.9-20.6,15.9-34.5,13.6-52.3c-2.3-9.7-6.1-19.6-18.1-19.6   c-10.3-0.7-17,4.4-20.2,6.7c-10.6,7.4-16.6,17.5-19.2,30.1c-0.8,4-1.2,6.2-1.3,9.5c-0.7,7.4-0.3,14.9,0,22.1   c0.1,3.9,0.2,8.3,3.8,22c-0.7,3.1-5.9,4.1-8.5,4.8c-4.5,0-9,0.3-12.5-1.8c-10.8-6.5-12-27.8-11-40.8c0.9-13.6,2.6-18.5,4.2-25   c1.9-6.9,4.9-13.3,7.8-20.1c3.9-8.4,9.1-17.1,14.5-25.6c4.8-7.2,19.6-20.4,18.9-27.2c-0.1-0.9-0.4-1.5-1.4-1.6   c-6.8,0-12.5,4.9-17.6,8.5c-13,9-20.5,21-28.1,33.9c-3.8,6.3-5.2,10.7-8,17.2c-4.5,10.4-9.2,23.2-9.8,34.6   c-1.6,11.8,1.7,26.1,4.5,36.5c6.2,17,19.7,23.8,41.7,22c3-0.3,5.8-3.4,9.3-2c1.2,1.1,2.5,2.1,3.7,3.2c0.4,0.8,0.7,1.7,1.1,2.5   c5.6,5.6,11.7,11.7,19.5,13.7c28.1,7.2,53.2-10.4,68.9-31.2c2.1-2.8,7.9-15.9,10.9-16.3c1.2-0.2,1.7,0.9,2.3,1.6   c4.2,5.2,1.7,9.5-0.2,14.7c-2.6,7.1-3.3,20.8,5.1,23.5c1.5,0.5,2.9,1.1,4.6,0.4c4.4-1.9,8.8-18.9,10.2-22.8   c0.4-1.2,1.2-3.6,2.4-4.2c2.1-1.1,6.8-0.3,9.4-0.3c3,0,9.1-0.7,11.6,0.2c0.2,0.2,0.4,0.5,0.7,0.7c0.5,4.4,1.6,8,1.8,12.5   c0.5,3.4,7.9,10.3,11,10.5c0.5-0.2,1.1-0.4,1.6-0.6c0.9-1.1,0.7-26,0.2-28.9C280.8,480.7,273.9,470.1,272.2,465.6L272.2,465.6z    M133.4,513.5c-1.5-7.5-1.2-15.1-0.3-22.8c0.7-5.9,2.3-31.4,13.4-37.6c9.3-2.3,6.6,22.5,5.8,28.4c-1.6,5.8-2.8,12.9-6,18.7   c-2.1,4.1-5.6,11.6-9.5,14.4C135.2,515.1,133.6,516,133.4,513.5L133.4,513.5z M266.2,510.9c-1.8,0.9-7.1,2.2-9,1   c-3.8-2.4,4.1-16.2,5.3-17.1c0.9,0,2.4-0.2,3,0.5C267.3,497.1,268.4,508.8,266.2,510.9L266.2,510.9z"/>
	<path class="st1" d="M553.7,433.8c-15-10.9-33.8-22.3-51.4-28.6c-33.2-11.8-60.4-18.5-99-17.5c-8.5,0.8-17.5,2.6-24.4,5.3   c-2.2,1.4-6.7,4.2-7.5,6.8c-1.2,3.5-5.2,10.4,0.5,12.8c0.8,0.1,1.5,0.3,2.3,0.4c3.2,0.1,12.1,1.5,12.2-2.5c0.1-3.8-5.8-1.5-4.9-5.7   c0.1-0.5,0.4-0.9,0.9-1c6-1.3,13-1.8,20.8-1.9c26.5-0.4,59.9,5.2,86.1,15.4c17.4,7.1,34.8,17.3,49.9,28.5   c16.3,12.1,31.9,28.7,36.7,48.2c0.8,3.8,1.1,6.7,1.2,10.4c0,16-7.9,24.9-20.2,33.1c-17.7,9.1-32.8,10.5-51.3,11.4   c-5.9,0.3-23.9,0.5-27.1-3.2c-0.1-0.1-0.2-0.2-0.3-0.3c-2.2-3.6-1.6-43.6-1.4-50.6c0-0.1,0.1-0.2,0.1-0.2c0,0,0.1-0.1,0.1-0.1   c0,0,0.1-0.1,0.1-0.2c2.5-2.1,43.5,2.7,51,9.6c2.2,2-0.3,4.7-1.7,6.1c-1.3,1.3-3.9,3-4.3,4.8c-1.8,6.8,11.2,4,14,2.6   c9.2-4.6,11.3-13.9,7.4-22.2c-8.4-17.9-45.5-18.4-64.9-20.4c-0.2-0.1-0.3-0.2-0.5-0.3c-0.3-0.3-0.6-0.6-1-1   c-1.5-1.9-0.6-7.2-0.6-9.9c-0.1-7.7-2.4-25-10.6-26.6c-10.6-2.1-4.8,38.7-12.9,41.6c-1.2,0.1-2.3,0.2-3.5,0.4   c-9.4,0-31,8.1-37.8,12.9c-6.7,4.7-13,11.2-8.8,20.6c2.6,5.8,9.9,13.8,14.7,18c9.1,8.2,19.6,14.9,31.5,20.5c1.5,0.7,3,1.4,4.5,2.1   c3.3,3.5,4,9.4,5.3,14c1.9,8.1,8.2,7.5,14.6,6.8c3.8-2,4.4-10.4,5.8-10.6c19.4,1.9,37,6.1,60.6,0.5c28.8-7.3,58.8-23.1,58.8-59   C598,477,575.3,448.9,553.7,433.8L553.7,433.8z M454.6,537.2c-1.5,1.6-4.5-0.1-5.9-0.6c-10.2-3.5-36.1-16.5-39.9-27.8   c-0.5-1.4,0-3.5,1.1-4.3c1.9-1,3.9-1.9,5.8-2.9c10.6-4.3,28.1-7,37.1-6.8c2.7,0,3.5,0.3,3.4,3C456.3,505.7,457.4,534.2,454.6,537.2   L454.6,537.2z"/>
	<path class="st1" d="M663.9,417.5c-1.3-2-3.8-4.3-6-5.1c-2.3-0.8-4.8-0.9-6.7-2.5c-2.3-2-5.3-6.2-9.9-6.5c-5.5,0-13.4-1.3-27.4,4.7   c-11.6,5.1-25.5,14.8-26.2,29.3c-0.2,3.4,1.4,8.5,2.9,11.2c0.7,1.4,2.1,2.4,2.4,4c0.7,3.9-0.3,11.4,3.7,13.2   c5.3,2.3,6.1-4.2,10.2-4.5c10.4,1.4,18.7,1,22.9-0.2C639.5,458.1,676.1,435.5,663.9,417.5L663.9,417.5z M610.8,426.5   c-2.1,2.4-4.3,4.8-6.4,7.2c-1.1,1.4-2,3.7-3.7,4.5c-0.5,0.2-1.3,0.2-1.7-0.1c-1.1-1,0.1-2.6,0.5-3.5c2.6-6.1,7.7-12.7,14.8-13.7   c0.6,0.2,1.5,0.5,1.1,1.4c0,0.1-0.1,0.1-0.1,0.2C614.1,424.2,612.2,425.1,610.8,426.5L610.8,426.5z M654.6,430.8   c-1.4,4.1-9.6,9.1-13,11.7c-8.7,4.1-12.2,5.8-23.6,5.5c-9.9,0,9.2-16.8,12.1-18.9c5-3.5,10-6.9,16.1-8.2   C655.2,421,656,424.1,654.6,430.8L654.6,430.8z"/>
	<path class="st1" d="M781.5,490.2c-3.3-9.8-12.9-27.6-22.8-27.6c-2.7,3.6,7.6,17.7,11.2,46.6c0.3,1.5,1.1,9.2-0.2,12.5   c-0.5,1.5-2.4,1.8-3.4,0.6c-3.6-4.2-25.8-40.5-32.3-42.1c-3.3-0.9-4.4,1.2-6.7,2.7c-2.4,4-3.4,8.9-5,13.4   c-5.1,14.8-5.5,31.4-4.4,47c0.5,3.1,1.6,8.5,6.1,9c1.7,0.2,5.1,0.5,6.4-0.5c4.3-3.5,4.7-34.8,4.7-41c0-2.3-0.2-4.1,2.5-3.8   c1.5,0.1,11.3,24.6,20.7,35.9c1.3,2,3.2,3.8,5.5,5.2c1.7,1.1,8.5,0.5,10,0c6.4-2.2,11.3-13.4,12.2-19.5c0.1-4,0.1-8,0.2-11.9   C785.9,507.3,784.7,498.8,781.5,490.2L781.5,490.2z"/>
	<path class="st1" d="M332.7,521.5c-5.1-1-15.1,4.4-21.9,8c-4.5,1.7-6-1.5-5.9-5.3c0-7.1,4.5-35.3,7.8-40.9   c1.1-3.7,2.4-10.1,1.3-14.3c-0.3-0.6-0.7-1.1-1-1.7c-0.8-1.9-1.5-2.2-3.8-2.2c-7,2.6-10.5,13.6-13.2,20.7   c-3.9,11.4-7.3,25.2-7.4,37.6c0.3,8.3,1.8,22,8.9,26.1c14.7,8.2,38.4-8.5,38.1-24.2c0-2.2-1.2-3.7-2.9-3.7V521.5L332.7,521.5z"/>
	<path class="st1" d="M382,470.7c0-1.9-7.3-1.4-8.9-1.4c-6,0-10.5,4.1-14,7.6c-1.3,1.6-3.1,5.1-5.6,5.6c-6.8,1.4-18.3-5.9-22.7-9.3   c-2-1.4-1.6-4.8-4.3-6.4c0,0,0,0.1,0,0.1c-1.3,0-2.4,1.9-2.8,2.8c-8.2,20.8,22,23.5,21.4,32.7c-2.4,16.1-6.1,19.8-6.6,43.5   c0.3,3.9,0.6,25,11.3,30.4c1.7,0.9,7.1,0.7,9,0.1c1.5-0.5,1-13.6,1-16.1c0-21.8,0-40.3,4.3-55.4c0.9-1.9,2.9-2.1,4.9-2.1   c6.6,0,13-0.2,17.4-4.6c3.3-5,5.4-5.6,4.4-13.7C390.4,479.5,388.9,469.8,382,470.7L382,470.7z M376.6,482.8   c-1.5,0.2-5.6,0.6-4.5-2.1c1-1.1,2.1-2.2,3.1-3.4c1.5,0,4.9-0.5,5.8,0.6C381.7,481.9,380.2,481.9,376.6,482.8L376.6,482.8z"/>
	<path class="st1" d="M934.5,496.1c-2.2-5.3-5.4-13.6-11.7-15.8c-13-4.4-36.3,25.2-44.1,33.8c-1.1,1.2-2.6,5.8-5,4.6   c-1-0.5-0.6-2.5-0.6-3.5c0.1-3.9,2.2-7.1,3.8-10.3c1.5-3.2,3-6.4,4.5-9.6c2.7-5.3,6.5-10.9,6.5-17.5c0-2.4,0.5-4.6-2.1-5   c-1.4,0.7-2.7,1.2-4,2.2c-3.6,3-8,9.6-10.7,13.5c-3.3,4.7-8.6,15.1-9.8,20.7c-1.5,5.2-3.8,12.7-1.4,22c0.4,0.6,0.7,1.2,1.1,1.8   c1.1,3,2.2,6.8,1.4,10.4c-0.3,0.6-0.6,1.2-1,1.8c-5.2,17-11.8,34.7-12.5,52.6c-0.4,3.6-2,7.4-1.1,11.4c0.7,3.1,3.8,6.9,6.1,9.1   c1.7,1.7,3.9,3.6,6.3,3.8c1,0.1,2.5,0.2,3.2-0.6c8-9,7.4-53.5,18-64.4c0.3-0.3,18.7-2.1,28.3-7.9   C924.3,539.9,941.7,513.6,934.5,496.1L934.5,496.1z M899.2,533.9c-0.6,0-1.2,0.1-1.8,0.1c-1.1,0-2.9,0-3.2-1.2   c-1.2-5.5,13.1-24.4,15.1-26.5c1.1-1.2,8.9-9,10.4-10.2c4.6,0.1,4.6,3.1,4.6,7.2C923.9,518.7,916.7,528.5,899.2,533.9L899.2,533.9z   "/>
	<path class="st1" d="M653.6,492.9c22.3-8.3,48.8-3.8,58.4-6.7c2.6-1.9,3-7.9-1.7-9.1c-11.4-2.5-44.2-8.6-70.6,8.7   c-4.3,3.4-6.3,6.3-6.3,12.3c0,4.3,1,9,4.7,11.1c3.1,2.2,13.8,2.9,18.8,2.9c9.5,0.2,32.8,1.2,40.1,8c5.8,5.5-0.2,11.3-6,13.2   c-10.8,3.2-20.4,2.4-29.1,2.9c-4.5,0-19.7-0.7-16.3-7.7c4.3-8.7,20.3,1.3,26,2.1c6,0.9,13.2,0,17.3-4.9c2.4-2.9,1.7-2.5-1.4-5.3   c-6.6-2.8-21.7-4.9-34.1-4.4c-4.5,0-11,2.9-13.6,6.4c-2.3,3-2.4,6.8-1.6,10.5c3.6,12.8,17.6,17.7,25.4,18.9   c10.7,1.2,29.7,2.2,39-5.2c13.5-10.8,14.3-30.7-1.6-38.9c-12.8-6.8-32.6-4.6-49.4-8.8C647.5,498.1,651.2,493.6,653.6,492.9   L653.6,492.9z"/>
	<path class="st1" d="M843.6,531.3c-8.3-3.2-25.3,5.8-32.6,2.2c-2.3-1.1,1-8.7,1.9-9.8c1.1-1.4,1.6-3.7,3.4-4.4   c2-0.9,5.7-0.3,8.1-0.3c4.3-0.1,19.6-0.8,20.6-5.2c2.5-11-10.6-9.4-18.4-9.4c-1.4,0-4.1,0.4-5.1-0.5c-0.7-0.6-0.6-2.2-0.6-3.2   c0-2.6,1.2-4.9,2.9-6.6c0.1-0.1,0.1-0.1,0.2-0.2c1.5-1.2,15.9-0.3,19.1-0.5c3.6-0.3,13.7-1.5,14.8-4.8c0.9-2.6-0.5-4.8-1.7-6.7   c-6.4-9.9-14.8-7.3-26.6-7.3c-9.7,0.8-19.4,2.9-28.9,4.2c-2.4,0.3-5.6,1.2-6.1,1.7c0,0-0.1,0.1-0.1,0.1c0,0-0.1,0.1-0.1,0.1   c-2,3.5,1.4,6.7,4,8.3c2.2,1.8,6.5,1,7.6,3.9c1.3,3.2-2,10.7-4.4,12.2c-1.8,1.2-4.8,1.4-5.9,3.6c-1.2,2.3,0.1,8.1-0.3,10.9   c-1.3,3-2.5,6.1-3.8,9.1c-2.5,10.1,1.8,22.6,9.6,28.4c5.2,3.9,25.1-2.5,30.5-5.3c4.1-2.1,7.6-3.9,11.4-6.7c1.4-1,3-2.6,4.1-4.1   C849.1,538.4,846.3,532.3,843.6,531.3L843.6,531.3z"/>
	<path class="st1" d="M622.4,483.5c-1.5-4-3.2-7.7-8.3-7.7c-1.8,0.5-2.8,1.8-3.3,3.7c-2.8,12.9-2.9,31.1-3,48.4   c0.1,7.9-0.4,19.1,3.3,23.8c2.7,3.5,12.5,3.6,14-1.3c0.1-4.5,0.1-8.9,0.2-13.4C625.2,518.7,624.6,501.5,622.4,483.5L622.4,483.5z"/>
</g>
</svg>